# xmcd
#
# Track frame offsets:
#	150
#	35003
#	49678
#	92983
#	111012
#	129111
#	169420
#
# Disc length: 2721 seconds
#
# Revision: 1
# Processed by: cddbd v1.5.2PL0 Copyright (c) Steve Scherf et al.
# Submitted via: audiograbber 1.83.01
#
DISCID=580a9f07
DTITLE=Lacrimae Mortalium - L'ange de glace
DYEAR=2010
DGENRE=Black Metal
TTITLE0=La nuit
TTITLE1=Ténèbres
TTITLE2=L'ange de glace
TTITLE3=Lugubre empire
TTITLE4=Lacrimae Mortalium
TTITLE5=Anxiété
TTITLE6=Solitude
EXTD=
EXTT0=
EXTT1=
EXTT2=
EXTT3=
EXTT4=
EXTT5=
EXTT6=
PLAYORDER=
